<svg xmlns="http://www.w3.org/2000/svg" width="1180" height="495" viewBox="0 0 1180 495" role="img" aria-label="Run 1  '60-naive-5ms': animation error distribution">
<title>Run 1  '60-naive-5ms': animation error distribution</title>
<style>
  text { font-family: "Segoe UI Variable Text", "Segoe UI", Inter, system-ui, -apple-system, "Helvetica Neue", Arial, sans-serif;
         font-size: 13px; fill: #e6edf3; font-variant-numeric: tabular-nums; }
  .card { fill: #1f242b; fill-opacity: 0.94; stroke: #8b949e; stroke-opacity: 0.25; stroke-width: 1; }
  .title { font-size: 20px; font-weight: 600; letter-spacing: -0.01em; }
  .sub { fill: #8b949e; }
  .label { font-size: 11px; font-weight: 600; letter-spacing: 0.08em; fill: #8b949e; }
  .vsync-n { font-size: 11px; fill: #6e7681; letter-spacing: 0.04em; }
  .axis { font-size: 12px; fill: #c9d1d9; }
  .vsync { stroke: #ffffff; stroke-opacity: 0.34; stroke-width: 1; stroke-dasharray: 3 4; }
  .vsync-skip { stroke: #ffffff; stroke-opacity: 0.09; stroke-width: 1; stroke-dasharray: 2 6; }
  .vsync-target { font-size: 11px; font-weight: 600; fill: #c9d1d9; letter-spacing: 0.04em; }
  .vsync-n-skip { font-size: 11px; fill: #545b64; letter-spacing: 0.04em; }
  .box { fill: #ffffff; fill-opacity: 0.06; stroke: #ffffff; stroke-opacity: 0.22; stroke-width: 1; }
  .frame { font-size: 14px; font-weight: 700; }
  .box-time { fill: #b1bac4; font-size: 12px; }
  .arrow { stroke: #8b949e; stroke-width: 1.2; }
  .arrowhead { fill: #8b949e; }
  .ok { fill: #2ea043; }
  .hold { fill: #2ea043; fill-opacity: 0.45; }
  .again { fill: #d29922; }
  .off { fill: #e5534b; }
  .cell-text { font-size: 14px; font-weight: 700; fill: #ffffff; }
  .dark-text { fill: #1c1f24; }
  .zero { fill: #6e7681; }
  .err { fill: #ff7b72; font-weight: 600; }
  .err-pill { fill: #e5534b; fill-opacity: 0.16; }
  .neutral { fill: #3d444d; }
  .lane { font-size: 15px; font-weight: 600; }
  .same { fill: #7ee787; font-weight: 600; }

  .tile { fill: #ffffff; fill-opacity: 0.05; stroke: #ffffff; stroke-opacity: 0.12; stroke-width: 1; }
  .tile-value { font-size: 20px; font-weight: 600; }
  .grid { stroke: #ffffff; stroke-opacity: 0.1; stroke-width: 1; }
  .zero-line { stroke: #ffffff; stroke-opacity: 0.45; stroke-width: 1; }
  .bar { fill: #e5534b; }
  .display-line { stroke: #2ea043; stroke-width: 2; fill: none; }
  .step-line { stroke: #58a6ff; stroke-width: 1.2; fill: none; stroke-linejoin: round; }
  .strip-a { fill: #6e7681; }
  .strip-b { fill: #adbac7; }
  .average-line { stroke: #d29922; stroke-width: 1.5; stroke-dasharray: 6 4; }
  .average-text { fill: #d29922; font-size: 12px; }

  .band { fill: #ffffff; fill-opacity: 0.06; }
  .error-refresh { stroke: #d29922; stroke-opacity: 0.8; stroke-width: 1; stroke-dasharray: 3 4; }
  .error-refresh-text { font-size: 11px; fill: #d29922; letter-spacing: 0.04em; }
  .held { stroke: #2ea043; stroke-width: 2.5; fill: none; }
  .held-late { stroke: #e5534b; stroke-width: 2.5; fill: none; }
  .bar-range { fill: #e5534b; fill-opacity: 0.3; }
  .static-band { fill: #a371f7; fill-opacity: 0.14; }
  .static-text { font-size: 11px; fill: #a371f7; letter-spacing: 0.04em; }
  .strip-static-a { fill: #a371f7; fill-opacity: 0.55; }
  .strip-static-b { fill: #a371f7; fill-opacity: 0.85; }
  .held-older { stroke: #db61a2; stroke-width: 2.5; fill: none; }
  .held-dropped { stroke: #f0883e; stroke-width: 2.5; fill: none; }
  .held-unknown { stroke: #768390; stroke-width: 2.5; stroke-dasharray: 4 3; fill: none; }
  .held-range-older { fill: #db61a2; fill-opacity: 0.3; }
  .held-range-dropped { fill: #f0883e; fill-opacity: 0.3; }
  .held-range-unknown { fill: #768390; fill-opacity: 0.3; }
  .held-fill-older { fill: #db61a2; }
  .held-fill-dropped { fill: #f0883e; }
  .held-fill-unknown { fill: #768390; }
  .strip-older { fill: #db61a2; }
  .strip-dropped { fill: #f0883e; }
  .key-pink { fill: #db61a2; }
  .key-orange { fill: #f0883e; }
  .key-unknown { fill: #768390; }
  .key-faint { fill: #ffffff; fill-opacity: 0.3; }
  .key-amber { fill: #d29922; }
  .key-green { fill: #2ea043; }
  .key-red { fill: #e5534b; }
  .key-blue { fill: #58a6ff; }
  .key-blue-faint { fill: #58a6ff; fill-opacity: 0.45; }
  .key-violet-a { fill: #a371f7; fill-opacity: 0.55; }
  .key-violet-b { fill: #a371f7; fill-opacity: 0.85; }
  .key-grey { fill: #3d444d; }
  .held-fill { fill: #2ea043; }
  .held-fill-late { fill: #e5534b; }
  .held-range { fill: #2ea043; fill-opacity: 0.3; }
  .held-range-late { fill: #e5534b; fill-opacity: 0.3; }
  .riser { stroke: #ffffff; stroke-opacity: 0.3; stroke-width: 1; fill: none; }
  .late-line { stroke: #e5534b; stroke-width: 1.5; fill: none; stroke-linejoin: round; }
  .late-line-adapted { stroke: #d29922; stroke-width: 1.5; fill: none; stroke-linejoin: round; }
  .late-line-none { stroke: #2ea043; stroke-width: 1.5; fill: none; stroke-linejoin: round; }
  .frametime { stroke: #58a6ff; stroke-width: 2.5; fill: none; }
  .frametime-range { fill: #58a6ff; fill-opacity: 0.3; }
  .step-range { fill: #58a6ff; fill-opacity: 0.25; }
  .frametime-fill { fill: #58a6ff; }
  .cpu-busy { fill: #58a6ff; fill-opacity: 0.22; }
  .strip-late { fill: #e5534b; }
  .hist-bar { fill: #58a6ff; }
  .curve { stroke: #58a6ff; stroke-width: 2; fill: none; stroke-linejoin: round; }
  .clip-mark { fill: #e5534b; }
  .clip-text { font-size: 11px; fill: #e6edf3; }
  .warn { fill: #d29922; }
  .event-track { fill: #ffffff; fill-opacity: 0.05; }
  .event-dropped { fill: #f0883e; }
  .event-older { fill: #db61a2; }
  .event-torn { fill: #39c5cf; }
  .event-gap { fill: #768390; }
  .event-undecoded { fill: #545d68; }
  .key-cyan { fill: #39c5cf; }
  .key-undecoded { fill: #545d68; }
</style>
<rect class="card" x="0.5" y="0.5" width="1179" height="494" rx="14"/>
<text x="20.0" y="30.0" text-anchor="start" class="title">Run 1  '60-naive-5ms': animation error distribution</text>
<text x="20.0" y="54.0" text-anchor="start" class="sub">How often each animation error occurs, in 0.1 ms bins: + shown too soon (right), − shown too late (left).</text>
<text x="20.0" y="73.0" text-anchor="start" class="sub">The whole run: 8.0 s, 480 presented frames.</text>
<text x="20.0" y="115.0" text-anchor="start" class="label">ANIMATION ERROR DISTRIBUTION</text>
<text x="1140.0" y="115.0" text-anchor="end" class="vsync-n">presented frames on a log scale; dashed: the ±1 ms error threshold</text>
<text x="137.0" y="449.0" text-anchor="middle" class="vsync-n">−10 ms</text>
<text x="381.0" y="449.0" text-anchor="middle" class="vsync-n">−5 ms</text>
<text x="625.0" y="449.0" text-anchor="middle" class="vsync-n">0</text>
<text x="869.0" y="449.0" text-anchor="middle" class="vsync-n">+5 ms</text>
<text x="1113.0" y="449.0" text-anchor="middle" class="vsync-n">+10 ms</text>
<line class="grid" x1="110" y1="391.9" x2="1140" y2="391.9"/>
<text x="100.0" y="395.9" text-anchor="end" class="vsync-n">1</text>
<line class="grid" x1="110" y1="261.4" x2="1140" y2="261.4"/>
<text x="100.0" y="265.4" text-anchor="end" class="vsync-n">10</text>
<line class="grid" x1="110" y1="131.0" x2="1140" y2="131.0"/>
<text x="100.0" y="135.0" text-anchor="end" class="vsync-n">100</text>
<rect class="hist-bar" x="134.77" y="159.9" width="4.39" height="271.1"/>
<rect class="hist-bar" x="168.93" y="391.9" width="4.39" height="39.1"/>
<rect class="hist-bar" x="193.33" y="391.9" width="4.39" height="39.1"/>
<rect class="hist-bar" x="198.21" y="352.6" width="4.39" height="78.4"/>
<rect class="hist-bar" x="222.61" y="352.6" width="4.39" height="78.4"/>
<rect class="hist-bar" x="237.26" y="391.9" width="4.39" height="39.1"/>
<rect class="hist-bar" x="242.14" y="352.6" width="4.39" height="78.4"/>
<rect class="hist-bar" x="251.90" y="391.9" width="4.39" height="39.1"/>
<rect class="hist-bar" x="256.78" y="329.6" width="4.39" height="101.4"/>
<rect class="hist-bar" x="261.66" y="391.9" width="4.39" height="39.1"/>
<rect class="hist-bar" x="276.30" y="352.6" width="4.39" height="78.4"/>
<rect class="hist-bar" x="281.18" y="329.6" width="4.39" height="101.4"/>
<rect class="hist-bar" x="286.06" y="313.3" width="4.39" height="117.7"/>
<rect class="hist-bar" x="295.82" y="329.6" width="4.39" height="101.4"/>
<rect class="hist-bar" x="300.70" y="391.9" width="4.39" height="39.1"/>
<rect class="hist-bar" x="315.34" y="391.9" width="4.39" height="39.1"/>
<rect class="hist-bar" x="320.22" y="391.9" width="4.39" height="39.1"/>
<rect class="hist-bar" x="325.10" y="352.6" width="4.39" height="78.4"/>
<rect class="hist-bar" x="334.86" y="391.9" width="4.39" height="39.1"/>
<rect class="hist-bar" x="339.74" y="391.9" width="4.39" height="39.1"/>
<rect class="hist-bar" x="349.50" y="391.9" width="4.39" height="39.1"/>
<rect class="hist-bar" x="354.38" y="391.9" width="4.39" height="39.1"/>
<rect class="hist-bar" x="373.91" y="391.9" width="4.39" height="39.1"/>
<rect class="hist-bar" x="378.79" y="391.9" width="4.39" height="39.1"/>
<rect class="hist-bar" x="383.67" y="329.6" width="4.39" height="101.4"/>
<rect class="hist-bar" x="388.55" y="313.3" width="4.39" height="117.7"/>
<rect class="hist-bar" x="393.43" y="391.9" width="4.39" height="39.1"/>
<rect class="hist-bar" x="408.07" y="352.6" width="4.39" height="78.4"/>
<rect class="hist-bar" x="427.59" y="391.9" width="4.39" height="39.1"/>
<rect class="hist-bar" x="432.47" y="391.9" width="4.39" height="39.1"/>
<rect class="hist-bar" x="437.35" y="391.9" width="4.39" height="39.1"/>
<rect class="hist-bar" x="442.23" y="391.9" width="4.39" height="39.1"/>
<rect class="hist-bar" x="447.11" y="391.9" width="4.39" height="39.1"/>
<rect class="hist-bar" x="451.99" y="391.9" width="4.39" height="39.1"/>
<rect class="hist-bar" x="456.87" y="391.9" width="4.39" height="39.1"/>
<rect class="hist-bar" x="466.63" y="391.9" width="4.39" height="39.1"/>
<rect class="hist-bar" x="476.39" y="329.6" width="4.39" height="101.4"/>
<rect class="hist-bar" x="481.27" y="352.6" width="4.39" height="78.4"/>
<rect class="hist-bar" x="500.79" y="391.9" width="4.39" height="39.1"/>
<rect class="hist-bar" x="505.68" y="352.6" width="4.39" height="78.4"/>
<rect class="hist-bar" x="510.56" y="329.6" width="4.39" height="101.4"/>
<rect class="hist-bar" x="515.44" y="290.4" width="4.39" height="140.6"/>
<rect class="hist-bar" x="520.32" y="290.4" width="4.39" height="140.6"/>
<rect class="hist-bar" x="525.20" y="329.6" width="4.39" height="101.4"/>
<rect class="hist-bar" x="530.08" y="274.1" width="4.39" height="156.9"/>
<rect class="hist-bar" x="534.96" y="329.6" width="4.39" height="101.4"/>
<rect class="hist-bar" x="539.84" y="274.1" width="4.39" height="156.9"/>
<rect class="hist-bar" x="544.72" y="267.4" width="4.39" height="163.6"/>
<rect class="hist-bar" x="549.60" y="234.8" width="4.39" height="196.2"/>
<rect class="hist-bar" x="554.48" y="300.7" width="4.39" height="130.3"/>
<rect class="hist-bar" x="559.36" y="238.5" width="4.39" height="192.5"/>
<rect class="hist-bar" x="564.24" y="256.0" width="4.39" height="175.0"/>
<rect class="hist-bar" x="569.12" y="242.4" width="4.39" height="188.6"/>
<rect class="hist-bar" x="574.00" y="256.0" width="4.39" height="175.0"/>
<rect class="hist-bar" x="671.61" y="251.1" width="4.39" height="179.9"/>
<rect class="hist-bar" x="676.49" y="231.4" width="4.39" height="199.6"/>
<rect class="hist-bar" x="681.37" y="242.4" width="4.39" height="188.6"/>
<rect class="hist-bar" x="686.25" y="281.6" width="4.39" height="149.4"/>
<rect class="hist-bar" x="691.13" y="274.1" width="4.39" height="156.9"/>
<rect class="hist-bar" x="696.01" y="313.3" width="4.39" height="117.7"/>
<rect class="hist-bar" x="700.89" y="261.4" width="4.39" height="169.6"/>
<rect class="hist-bar" x="705.77" y="281.6" width="4.39" height="149.4"/>
<rect class="hist-bar" x="710.65" y="290.4" width="4.39" height="140.6"/>
<rect class="hist-bar" x="715.53" y="267.4" width="4.39" height="163.6"/>
<rect class="hist-bar" x="720.41" y="300.7" width="4.39" height="130.3"/>
<rect class="hist-bar" x="725.29" y="352.6" width="4.39" height="78.4"/>
<rect class="hist-bar" x="730.17" y="274.1" width="4.39" height="156.9"/>
<rect class="hist-bar" x="735.05" y="391.9" width="4.39" height="39.1"/>
<rect class="hist-bar" x="739.93" y="329.6" width="4.39" height="101.4"/>
<rect class="hist-bar" x="744.81" y="313.3" width="4.39" height="117.7"/>
<rect class="hist-bar" x="754.57" y="391.9" width="4.39" height="39.1"/>
<rect class="hist-bar" x="759.45" y="391.9" width="4.39" height="39.1"/>
<rect class="hist-bar" x="764.33" y="391.9" width="4.39" height="39.1"/>
<rect class="hist-bar" x="778.98" y="391.9" width="4.39" height="39.1"/>
<rect class="hist-bar" x="783.86" y="352.6" width="4.39" height="78.4"/>
<rect class="hist-bar" x="788.74" y="391.9" width="4.39" height="39.1"/>
<rect class="hist-bar" x="793.62" y="329.6" width="4.39" height="101.4"/>
<rect class="hist-bar" x="803.38" y="391.9" width="4.39" height="39.1"/>
<rect class="hist-bar" x="808.26" y="391.9" width="4.39" height="39.1"/>
<rect class="hist-bar" x="813.14" y="352.6" width="4.39" height="78.4"/>
<rect class="hist-bar" x="818.02" y="313.3" width="4.39" height="117.7"/>
<rect class="hist-bar" x="822.90" y="391.9" width="4.39" height="39.1"/>
<rect class="hist-bar" x="837.54" y="391.9" width="4.39" height="39.1"/>
<rect class="hist-bar" x="847.30" y="352.6" width="4.39" height="78.4"/>
<rect class="hist-bar" x="852.18" y="329.6" width="4.39" height="101.4"/>
<rect class="hist-bar" x="871.70" y="391.9" width="4.39" height="39.1"/>
<rect class="hist-bar" x="891.22" y="391.9" width="4.39" height="39.1"/>
<rect class="hist-bar" x="896.10" y="352.6" width="4.39" height="78.4"/>
<rect class="hist-bar" x="900.98" y="391.9" width="4.39" height="39.1"/>
<rect class="hist-bar" x="910.75" y="391.9" width="4.39" height="39.1"/>
<rect class="hist-bar" x="920.51" y="391.9" width="4.39" height="39.1"/>
<rect class="hist-bar" x="940.03" y="352.6" width="4.39" height="78.4"/>
<rect class="hist-bar" x="954.67" y="329.6" width="4.39" height="101.4"/>
<rect class="hist-bar" x="964.43" y="329.6" width="4.39" height="101.4"/>
<rect class="hist-bar" x="979.07" y="352.6" width="4.39" height="78.4"/>
<rect class="hist-bar" x="983.95" y="391.9" width="4.39" height="39.1"/>
<rect class="hist-bar" x="988.83" y="352.6" width="4.39" height="78.4"/>
<rect class="hist-bar" x="998.59" y="352.6" width="4.39" height="78.4"/>
<rect class="hist-bar" x="1003.47" y="391.9" width="4.39" height="39.1"/>
<rect class="hist-bar" x="1018.11" y="391.9" width="4.39" height="39.1"/>
<rect class="hist-bar" x="1027.87" y="352.6" width="4.39" height="78.4"/>
<rect class="hist-bar" x="1032.75" y="352.6" width="4.39" height="78.4"/>
<rect class="hist-bar" x="1037.63" y="391.9" width="4.39" height="39.1"/>
<rect class="hist-bar" x="1057.16" y="352.6" width="4.39" height="78.4"/>
<rect class="hist-bar" x="1066.92" y="391.9" width="4.39" height="39.1"/>
<rect class="hist-bar" x="1071.80" y="352.6" width="4.39" height="78.4"/>
<rect class="hist-bar" x="1081.56" y="391.9" width="4.39" height="39.1"/>
<rect class="hist-bar" x="1086.44" y="391.9" width="4.39" height="39.1"/>
<rect class="hist-bar" x="1091.32" y="391.9" width="4.39" height="39.1"/>
<rect class="hist-bar" x="1110.84" y="160.9" width="4.39" height="270.1"/>
<line class="average-line" x1="576.2" y1="131" x2="576.2" y2="431"/>
<line class="average-line" x1="673.8" y1="131" x2="673.8" y2="431"/>
<text x="625.0" y="471.0" text-anchor="middle" class="vsync-n">animation error (ms)</text>
</svg>
